<?xml version="1.0" encoding="UTF-8" standalone="no"?>
<!-- Created with Inkscape (http://www.inkscape.org/) -->

<svg
   version="1.1"
   id="svg1"
   width="967.0246"
   height="827.00018"
   viewBox="0 0 967.02463 827.00021"
   sodipodi:docname="new-logo.svg"
   inkscape:version="1.4.2 (f4327f4, 2025-05-13)"
   xmlns:inkscape="http://www.inkscape.org/namespaces/inkscape"
   xmlns:sodipodi="http://sodipodi.sourceforge.net/DTD/sodipodi-0.dtd"
   xmlns="http://www.w3.org/2000/svg"
   xmlns:svg="http://www.w3.org/2000/svg">
  <defs
     id="defs1">
    <inkscape:path-effect
       effect="powerclip"
       message=""
       id="path-effect7"
       is_visible="true"
       lpeversion="1"
       inverse="true"
       flatten="false"
       hide_clip="false" />
    <inkscape:path-effect
       effect="bspline"
       id="path-effect6"
       is_visible="true"
       lpeversion="1.3"
       weight="33.333333"
       steps="2"
       helper_size="0"
       apply_no_weight="true"
       apply_with_weight="true"
       only_selected="false"
       uniform="false" />
    <inkscape:path-effect
       effect="fillet_chamfer"
       id="path-effect5"
       is_visible="true"
       lpeversion="1"
       nodesatellites_param="F,0,0,1,0,0,0,1 @ F,0,0,1,0,0,0,1 @ F,0,0,1,0,0,0,1 @ F,0,0,1,0,0,0,1 @ F,0,0,1,0,0,0,1 @ F,0,0,1,0,0,0,1 @ F,0,0,1,0,3.0516056,0,1 @ F,0,0,1,0,0,0,1 @ F,0,0,1,0,0,0,1 @ F,0,0,1,0,0,0,1 @ F,0,0,1,0,0,0,1 @ F,0,0,1,0,2.9753722,0,1 @ F,0,0,1,0,0,0,1 @ F,0,0,1,0,0,0,1"
       radius="0"
       unit="px"
       method="auto"
       mode="F"
       chamfer_steps="1"
       flexible="false"
       use_knot_distance="true"
       apply_no_radius="true"
       apply_with_radius="true"
       only_selected="false"
       hide_knots="false" />
    <rect
       x="50.91169"
       y="1220.4663"
       width="1134.1993"
       height="130.10765"
       id="rect1" />
    <rect
       x="72.124893"
       y="653.36664"
       width="1402.8998"
       height="609.52606"
       id="rect8" />
    <inkscape:path-effect
       effect="fillet_chamfer"
       id="path-effect8"
       is_visible="true"
       lpeversion="1"
       nodesatellites_param="F,0,0,1,0,0,0,1 @ F,0,0,1,0,0,0,1 @ F,0,0,1,0,0,0,1 @ F,0,0,1,0,0,0,1"
       radius="0"
       unit="px"
       method="auto"
       mode="F"
       chamfer_steps="1"
       flexible="false"
       use_knot_distance="true"
       apply_no_radius="true"
       apply_with_radius="true"
       only_selected="false"
       hide_knots="false" />
    <clipPath
       clipPathUnits="userSpaceOnUse"
       id="clipPath6">
      <path
         style="display:none;fill:#ffcb00;fill-opacity:1;stroke:#000000"
         d="M 462.99219,972.00781 H 530 c 37.25,-0.125 37.01125,-31.02546 37.01125,-31.02546 V 924 c 0,0 0.71485,-26.14358 -33.03515,-26.01858 h -70.98136 z"
         id="path6"
         sodipodi:nodetypes="ccccccc"
         inkscape:label="R_INT" />
      <path
         id="lpe_path-effect7"
         style="fill:#ffcb00;fill-opacity:1;stroke:#000000"
         class="powerclip"
         d="M 413.48438,853.48124 H 619.51563 V 1091.5156 H 413.48438 Z m 49.50781,118.52657 H 530 c 37.25,-0.125 37.01125,-31.02546 37.01125,-31.02546 V 924 c 0,0 0.71485,-26.14358 -33.03515,-26.01858 h -70.98136 z" />
    </clipPath>
  </defs>
  <sodipodi:namedview
     id="namedview1"
     pagecolor="#ffffff"
     bordercolor="#000000"
     borderopacity="0.25"
     inkscape:showpageshadow="2"
     inkscape:pageopacity="0.0"
     inkscape:pagecheckerboard="0"
     inkscape:deskcolor="#d1d1d1"
     showgrid="true"
     inkscape:zoom="0.70710678"
     inkscape:cx="625.7895"
     inkscape:cy="495.68185"
     inkscape:window-width="1920"
     inkscape:window-height="1009"
     inkscape:window-x="1912"
     inkscape:window-y="-8"
     inkscape:window-maximized="1"
     inkscape:current-layer="g1">
    <inkscape:grid
       id="grid1"
       units="px"
       originx="-201.4961"
       originy="-265.50001"
       spacingx="1"
       spacingy="1"
       empcolor="#0099e5"
       empopacity="0.30196078"
       color="#0099e5"
       opacity="0.14901961"
       empspacing="5"
       enabled="true"
       visible="true" />
  </sodipodi:namedview>
  <g
     id="g1"
     inkscape:label="E_Grande">
    <path
       style="display:inline;fill:#ff6613;fill-opacity:1;stroke:#000000"
       d="m 224.5,274.49219 168.9961,-86 h -71.99281 v -49.00782 c 0,0 -1.33185,-15.98779 12.01479,-29.42282 15.46796,-15.64473 30.98583,-13.56936 30.98583,-13.56936 h 215.99381 l 121.00228,-61 v -20 c 0,0 0.41296,-3.92115 -4.00147,-9.80201 C 693.3915,1.13688 687.4961,0.5 687.4961,0.5 H 333.50391 c 0,0 -41.76845,3.92344 -76.59346,43.34464 C 223.23449,80.61419 224.5,114.49609 224.5,114.49609 Z"
       id="path1"
       sodipodi:nodetypes="ccccccccccccccc"
       inkscape:label="E_N" />
    <path
       style="fill:#293e45;fill-opacity:1;stroke:#000000"
       d="M 224.4961,274.5 394.30581,188.3284 H 625.5586 c 0,0 4.21944,-0.30149 8.3295,4.16212 3.7565,3.18198 3.6705,8.84542 3.6705,8.84542 l -0.0547,65.17187 c 0,0 0.059,4.76998 -3.69102,8.45748 -4,4.40625 -9.32461,4.5269 -9.32461,4.5269 H 321.49776 v 56.00438 c 0,0 1.62979,12.50479 12.00479,23.00479 8.375,10.375 21.99219,10.99219 21.99219,10.99219 h 334.00917 c 0,0 5.68957,-0.32333 9.26779,4.33596 3.21875,4.375 2.73221,10.66658 2.73221,10.66658 l 0.75,58.98894 c 0,0 0.56766,7.26558 -3.96359,11.10933 -5.34375,5.34375 -10.04422,4.89783 -10.04422,4.89783 l -351.9375,-0.15625 c 0,0 -46.60117,-1.25271 -77.19216,-36.30817 -32.4519,-32.84099 -34.61287,-72.52443 -34.61287,-72.52443 z"
       id="path2"
       sodipodi:nodetypes="cccccccccccccccccccccc"
       inkscape:label="E_A" />
    <path
       style="fill:#293e45;fill-opacity:1;stroke:#000000"
       d="M 781.99609,361.99609 H 889 c 4.35589,0.13551 14.552,-4.63954 14,-17.01172 V 301 Z"
       id="path3"
       sodipodi:nodetypes="ccccc"
       inkscape:path-effect="#path-effect8"
       inkscape:original-d="M 781.99609,361.99609 H 889 c 4.35589,0.13551 14.552,-4.63954 14,-17.01172 V 301 Z"
       transform="translate(-201.49609,-265.5)"
       inkscape:label="E_P" />
  </g>
  <path
     style="fill:#293e45;stroke:#000000"
     d="m 882.52071,588.46402 c 70.125,5.375 77.9806,60.03778 77.9806,60.03778 V 652.5 l -44.0063,6.01179 c 0,0 -6.3661,-24.51179 -42.9911,-29.01179 h -19.0313 c -31.875,3.875 -32.973,26.00658 -32.973,26.00658 v 1.98874 c 0,0 6.4944,25.25264 51.9944,27.00264 0,0 95.1206,3.62854 92.9956,70.00354 0.5,72.625 -82.0013,71.9985 -82.0013,71.9985 h -28 c -78.875,-7.125 -87.9844,-68 -87.9844,-68 l 43.969,-6.0535 c 0,0 6.4033,29.0408 46.0283,32.0408 h 30.0027 c 27.125,-2 29,-21.0186 29,-21.0186 v -12.0156 c -1.5,-19.375 -44.0156,-22.9531 -44.0156,-22.9531 -99,-4.625 -99.97254,-61.98907 -99.97254,-61.98907 v -19.02559 c 9.125,-58.625 77.98814,-58.98925 77.98814,-58.98925 z"
     id="path7"
     sodipodi:nodetypes="ccccccccccccccccccccccc"
     inkscape:label="S" />
  <rect
     style="fill:#293e45;stroke:#000000"
     id="rect5"
     width="46.061829"
     height="227.04939"
     x="683.44141"
     y="593.4375"
     ry="6.7175145"
     inkscape:label="I" />
  <path
     style="fill:#293e45;stroke:#000000"
     d="m 637.99814,869.99546 c 0,0 -0.0239,-11.02467 11.00257,-11.00257 H 833 c 8.02124,0.0221 8.00408,11.00809 8.00408,11.00809 v 20.00339 c 0,11.09274 -7.01583,10.98225 -7.01583,10.98225 H 768.0477 a 3.0516056,3.0516056 135 0 0 -3.05161,3.05161 l 0,175.95687 c 0,0 0.14064,6.0466 -6.00235,6.0024 h -33.99937 c -5.48008,0.088 -5.99936,-3.9805 -5.99936,-3.9805 V 903.97304 a 2.9753722,2.9753722 45 0 0 -2.97537,-2.97537 l -71.01672,0 c 0,0 -7.58525,0.79436 -7.01073,-11.00548 z"
     id="path5"
     sodipodi:nodetypes="ccccccccccccccc"
     inkscape:path-effect="#path-effect5"
     inkscape:original-d="m 637.99814,869.99546 c 0,0 -0.0239,-11.02467 11.00257,-11.00257 H 833 c 8.02124,0.0221 8.00408,11.00809 8.00408,11.00809 v 20.00339 c 0,11.09274 -7.01583,10.98225 -7.01583,10.98225 h -68.99216 v 179.00848 c 0,0 0.14064,6.0466 -6.00235,6.0024 h -33.99937 c -5.48008,0.088 -5.99936,-3.9805 -5.99936,-3.9805 V 900.99767 h -73.99209 c 0,0 -7.58525,0.79436 -7.01073,-11.00548 z"
     inkscape:label="T"
     transform="translate(-201.49609,-265.5)" />
  <path
     style="display:inline;fill:#293e45;stroke:#000000"
     d="m 418.98438,865.96875 c 0,0 0.0161,-6.96484 7.01562,-6.98437 h 116.0084 c 0,0 68.4916,-1.73437 69.9916,76.01563 0,0 4.10895,50.24759 -48.01605,69.99759 l 50.03168,73.9712 v 4.0156 c 0,3.0312 -3.03125,3.0312 -3.03125,3.0312 h -45 l -50.98967,-75.0297 H 464.989 V 1080 c 0,0 0.0279,5.9779 -6.00462,6 h -35.03125 c -4.94975,0 -4.95703,-5.0039 -4.95703,-5.0039 z"
     id="path4"
     sodipodi:nodetypes="cccccccccccccccc"
     inkscape:label="R"
     clip-path="url(#clipPath6)"
     inkscape:path-effect="#path-effect7"
     inkscape:original-d="m 418.98438,865.96875 c 0,0 0.0161,-6.96484 7.01562,-6.98437 h 116.0084 c 0,0 68.4916,-1.73437 69.9916,76.01563 0,0 4.10895,50.24759 -48.01605,69.99759 l 50.03168,73.9712 v 4.0156 c 0,3.0312 -3.03125,3.0312 -3.03125,3.0312 h -45 l -50.98967,-75.0297 H 464.989 V 1080 c 0,0 0.0279,5.9779 -6.00462,6 h -35.03125 c -4.94975,0 -4.95703,-5.0039 -4.95703,-5.0039 z"
     transform="translate(-201.49609,-265.5)" />
  <path
     style="fill:#293e45;fill-opacity:1;stroke:#000000"
     d="M 164.5,820.4961 H 6.5 c 0,0 -5.9375,0.1875 -6,-6 V 599.49609 c 0.09375,-6.25 6,-6 6,-6 h 158.99233 c 0,0 6.01158,0.0299 6.01158,5.9961 V 623.51 c 0.0442,12.1534 -7.00781,11.98219 -7.00781,11.98219 H 48.46616 c 0,0 -0.986037,0.0138 -1.00261,1.00261 v 50.99739 c 0,0 0.03189,1.00065 1.01627,1.01627 h 105.02409 c 0,0 4.98014,-0.0359 4.98014,4.98015 v 26.03323 c 0,9.05981 -5.98795,8.97816 -5.98795,8.97816 H 48.4993 c -0.98332,0 -0.99652,0.99652 -0.99652,0.99652 V 778.499 c 0,0 -0.08732,1.0065 1.00649,1.0065 h 115.99464 c 0,0 6.99219,-0.5055 6.99219,10.9945 v 21.0156 c -0.0937,8.90625 -6.9961,8.9805 -6.9961,8.9805 z"
     id="path8"
     sodipodi:nodetypes="ccccccccccccccccccccccccc"
     inkscape:label="E" />
</svg>
